# xmcd
#
# Track frame offsets: 
#        150
#        16259
#        29726
#        41216
#        53954
#        75716
#        105754
#        137956
#        157091
#        183419
#        199259
#        226229
#        243929
#        258921
#
# Disc length: 3933 seconds
#
# Revision: 0
# Processed by: cddbd v1.5.2PL0 Copyright (c) Steve Scherf et al.
# Submitted via: ExactAudioCopy v1.0b3
#
DISCID=ba0f5b0e
DTITLE=Pearl Jam - Live On Air [CD 3 - San Diego, Nov. 7th, 1995)
DYEAR=2016
DGENRE=Hard Rock
TTITLE0=Oceans
TTITLE1=Go
TTITLE2=Animal
TTITLE3=Last Exit
TTITLE4=Tremor Christ
TTITLE5=Corduroy
TTITLE6=Rearviewmirror
TTITLE7=Better Man
TTITLE8=Even Flow
TTITLE9=Why Go
TTITLE10=Deep
TTITLE11=Mosquito
TTITLE12=Glorified G
TTITLE13=Daughter-I Believe-W.M.A
EXTD=
EXTT0=
EXTT1=
EXTT2=
EXTT3=
EXTT4=
EXTT5=
EXTT6=
EXTT7=
EXTT8=
EXTT9=
EXTT10=
EXTT11=
EXTT12=
EXTT13=
PLAYORDER=
